<svg width="32" height="32" viewBox="0 0 32 32" fill="none" xmlns="http://www.w3.org/2000/svg">
  <rect width="32" height="32" rx="16" fill="#8e44ad"/>
  <path d="M16 8C11.582 8 8 11.582 8 16C8 20.418 11.582 24 16 24C20.418 24 24 20.418 24 16C24 11.582 20.418 8 16 8ZM16 11.2C17.767 11.2 19.2 12.633 19.2 14.4C19.2 16.167 17.767 17.6 16 17.6C14.233 17.6 12.8 16.167 12.8 14.4C12.8 12.633 14.233 11.2 16 11.2ZM16 22.4C13.788 22.4 11.794 21.459 10.457 19.943C10.469 17.971 14.4 16.9 16 16.9C17.592 16.9 21.531 17.971 21.543 19.943C20.206 21.459 18.212 22.4 16 22.4Z" fill="white"/>
</svg> 