<svg width="80" height="80" viewBox="0 0 80 80" fill="none" xmlns="http://www.w3.org/2000/svg">
  <rect width="80" height="80" rx="40" fill="#8e44ad"/>
  <path d="M40 20C28.954 20 20 28.954 20 40C20 51.046 28.954 60 40 60C51.046 60 60 51.046 60 40C60 28.954 51.046 20 40 20ZM40 28C44.418 28 48 31.582 48 36C48 40.418 44.418 44 40 44C35.582 44 32 40.418 32 36C32 31.582 35.582 28 40 28ZM40 56C34.47 56 29.485 53.648 26.143 49.857C26.173 44.929 36 42.25 40 42.25C43.981 42.25 53.827 44.929 53.857 49.857C50.515 53.648 45.53 56 40 56Z" fill="white"/>
</svg> 